<?xml version="1.0" encoding="UTF-8" standalone="no"?>
<!-- Created with Inkscape (http://www.inkscape.org/) -->

<svg
   xmlns:dc="http://purl.org/dc/elements/1.1/"
   xmlns:cc="http://creativecommons.org/ns#"
   xmlns:rdf="http://www.w3.org/1999/02/22-rdf-syntax-ns#"
   xmlns:svg="http://www.w3.org/2000/svg"
   xmlns="http://www.w3.org/2000/svg"
   xmlns:xlink="http://www.w3.org/1999/xlink"
   xmlns:sodipodi="http://sodipodi.sourceforge.net/DTD/sodipodi-0.dtd"
   xmlns:inkscape="http://www.inkscape.org/namespaces/inkscape"
   version="1.0"
   width="32"
   height="32"
   id="svg2408"
   inkscape:version="0.48.1 r9760"
   sodipodi:docname="gnome-pie-indicator.svg">
  <sodipodi:namedview
     pagecolor="#ffffff"
     bordercolor="#666666"
     borderopacity="1"
     objecttolerance="10"
     gridtolerance="10"
     guidetolerance="10"
     inkscape:pageopacity="0"
     inkscape:pageshadow="2"
     inkscape:window-width="1117"
     inkscape:window-height="801"
     id="namedview93"
     showgrid="false"
     inkscape:zoom="13.666667"
     inkscape:cx="14.888492"
     inkscape:cy="21.146173"
     inkscape:window-x="575"
     inkscape:window-y="84"
     inkscape:window-maximized="0"
     inkscape:current-layer="svg2408" />
  <defs
     id="defs2410">
    <linearGradient
       id="linearGradient3858">
      <stop
         offset="0"
         style="stop-color:#ffffff;stop-opacity:1"
         id="stop3860" />
      <stop
         offset="1"
         style="stop-color:#aaaaaa;stop-opacity:1"
         id="stop3862" />
    </linearGradient>
    <linearGradient
       id="linearGradient3637">
      <stop
         id="stop3639"
         style="stop-color:#f0f0f0;stop-opacity:1"
         offset="0" />
      <stop
         id="stop3641"
         style="stop-color:#aaaaaa;stop-opacity:1"
         offset="1" />
    </linearGradient>
    <linearGradient
       x1="45.447727"
       y1="92.539597"
       x2="45.447727"
       y2="7.0165396"
       id="ButtonShadow"
       gradientUnits="userSpaceOnUse"
       gradientTransform="scale(1.0058652,0.994169)">
      <stop
         id="stop3750"
         style="stop-color:#000000;stop-opacity:1"
         offset="0" />
      <stop
         id="stop3752"
         style="stop-color:#000000;stop-opacity:0.58823532"
         offset="1" />
    </linearGradient>
    <linearGradient
       id="linearGradient3737">
      <stop
         id="stop3739"
         style="stop-color:#ffffff;stop-opacity:1"
         offset="0" />
      <stop
         id="stop3741"
         style="stop-color:#ffffff;stop-opacity:0"
         offset="1" />
    </linearGradient>
    <linearGradient
       id="linearGradient3700">
      <stop
         id="stop3702"
         style="stop-color:#2276c5;stop-opacity:1"
         offset="0" />
      <stop
         id="stop3704"
         style="stop-color:#68baf4;stop-opacity:1"
         offset="1" />
    </linearGradient>
    <filter
       color-interpolation-filters="sRGB"
       id="filter3174">
      <feGaussianBlur
         id="feGaussianBlur3176"
         stdDeviation="1.71" />
    </filter>
    <linearGradient
       x1="36.357143"
       y1="6"
       x2="36.357143"
       y2="63.893143"
       id="linearGradient3188"
       xlink:href="#linearGradient3737"
       gradientUnits="userSpaceOnUse" />
    <filter
       x="-0.192"
       y="-0.192"
       width="1.3839999"
       height="1.3839999"
       color-interpolation-filters="sRGB"
       id="filter3794">
      <feGaussianBlur
         id="feGaussianBlur3796"
         stdDeviation="5.28" />
    </filter>
    <linearGradient
       x1="48"
       y1="20.220806"
       x2="48"
       y2="138.66119"
       id="linearGradient3613"
       xlink:href="#linearGradient3737"
       gradientUnits="userSpaceOnUse" />
    <radialGradient
       cx="48"
       cy="90.171875"
       r="42"
       fx="48"
       fy="90.171875"
       id="radialGradient3619"
       xlink:href="#linearGradient3737"
       gradientUnits="userSpaceOnUse"
       gradientTransform="matrix(1.1573129,0,0,0.99590774,-7.5510206,0.19713193)" />
    <clipPath
       id="clipPath3613">
      <rect
         width="84"
         height="84"
         rx="6"
         ry="6"
         x="6"
         y="6"
         id="rect3615"
         style="fill:#ffffff;fill-opacity:1;fill-rule:nonzero;stroke:none" />
    </clipPath>
    <linearGradient
       x1="48"
       y1="90"
       x2="48"
       y2="5.9877172"
       id="linearGradient2843"
       xlink:href="#linearGradient3700"
       gradientUnits="userSpaceOnUse"
       gradientTransform="translate(0,100)" />
    <clipPath
       id="clipPath3625">
      <path
         d="M 0,0 0,96 96,96 96,0 0,0 z m 12,6 72,0 c 3.324,0 6,2.676 6,6 l 0,72 c 0,3.324 -2.676,6 -6,6 L 12,90 C 8.676,90 6,87.324 6,84 L 6,12 C 6,8.676 8.676,6 12,6 z"
         inkscape:connector-curvature="0"
         id="path3627"
         style="fill:#ffffff;fill-opacity:1;stroke:none" />
    </clipPath>
    <linearGradient
       x1="44.512066"
       y1="6"
       x2="44.512066"
       y2="90.015434"
       id="linearGradient3643"
       xlink:href="#linearGradient3637"
       gradientUnits="userSpaceOnUse" />
    <clipPath
       id="clipPath3649">
      <rect
         width="76"
         height="76"
         rx="4"
         ry="4"
         x="10"
         y="10"
         id="rect3651"
         style="fill:#ffffff;fill-opacity:1;fill-rule:nonzero;stroke:none" />
    </clipPath>
    <filter
       color-interpolation-filters="sRGB"
       id="filter3657">
      <feGaussianBlur
         id="feGaussianBlur3659"
         stdDeviation="1.14" />
    </filter>
    <linearGradient
       x1="45.447727"
       y1="92.539597"
       x2="45.447727"
       y2="7.0165396"
       id="ButtonShadow-0"
       gradientUnits="userSpaceOnUse"
       gradientTransform="matrix(1.0058652,0,0,0.994169,100,0)">
      <stop
         id="stop3750-8"
         style="stop-color:#000000;stop-opacity:1"
         offset="0" />
      <stop
         id="stop3752-5"
         style="stop-color:#000000;stop-opacity:0.58823532"
         offset="1" />
    </linearGradient>
    <linearGradient
       x1="32.251034"
       y1="6.1317081"
       x2="32.251034"
       y2="90.238609"
       id="linearGradient3780"
       xlink:href="#ButtonShadow-0"
       gradientUnits="userSpaceOnUse"
       gradientTransform="matrix(1.0238095,0,0,-1.0119048,-1.1428571,98.071429)" />
    <linearGradient
       x1="32.251034"
       y1="6.1317081"
       x2="32.251034"
       y2="90.238609"
       id="linearGradient3772"
       xlink:href="#ButtonShadow-0"
       gradientUnits="userSpaceOnUse"
       gradientTransform="matrix(1.0238095,0,0,-1.0119048,-1.1428571,98.071429)" />
    <linearGradient
       x1="32.251034"
       y1="6.1317081"
       x2="32.251034"
       y2="90.238609"
       id="linearGradient3725"
       xlink:href="#ButtonShadow-0"
       gradientUnits="userSpaceOnUse"
       gradientTransform="matrix(1.0238095,0,0,-1.0119048,-1.1428571,98.071429)" />
    <linearGradient
       x1="32.251034"
       y1="6.1317081"
       x2="32.251034"
       y2="90.238609"
       id="linearGradient3721"
       xlink:href="#ButtonShadow-0"
       gradientUnits="userSpaceOnUse"
       gradientTransform="matrix(1,0,0,-1,0,97)" />
    <linearGradient
       x1="32.251034"
       y1="6.1317081"
       x2="32.251034"
       y2="90.238609"
       id="linearGradient3199"
       xlink:href="#ButtonShadow-0"
       gradientUnits="userSpaceOnUse"
       gradientTransform="matrix(1.0238095,0,0,-1.0119048,-1.1428571,98.071429)" />
    <linearGradient
       x1="36.357143"
       y1="6"
       x2="36.357143"
       y2="63.893143"
       id="linearGradient3188-8"
       xlink:href="#linearGradient3737-3"
       gradientUnits="userSpaceOnUse"
       gradientTransform="translate(-7.3170732,-6.2926829)" />
    <linearGradient
       id="linearGradient3737-3">
      <stop
         id="stop3739-6"
         style="stop-color:#ffffff;stop-opacity:1"
         offset="0" />
      <stop
         id="stop3741-1"
         style="stop-color:#ffffff;stop-opacity:0"
         offset="1" />
    </linearGradient>
    <radialGradient
       cx="48"
       cy="90.171875"
       r="42"
       fx="48"
       fy="90.171875"
       id="radialGradient3619-3"
       xlink:href="#linearGradient3737-3"
       gradientUnits="userSpaceOnUse"
       gradientTransform="matrix(1.1573129,0,0,0.99590774,-14.868094,-6.095551)" />
    <linearGradient
       x1="104"
       y1="8"
       x2="120"
       y2="8"
       id="linearGradient3905"
       xlink:href="#linearGradient3637"
       gradientUnits="userSpaceOnUse"
       gradientTransform="translate(-104,104)" />
    <linearGradient
       x1="104"
       y1="8"
       x2="120"
       y2="8"
       id="linearGradient3913"
       xlink:href="#linearGradient3183-0"
       gradientUnits="userSpaceOnUse"
       gradientTransform="translate(-144,104)" />
    <linearGradient
       id="linearGradient3183-0">
      <stop
         id="stop3185-9"
         style="stop-color:#c80000;stop-opacity:1"
         offset="0" />
      <stop
         id="stop3187-6"
         style="stop-color:#f3604d;stop-opacity:1"
         offset="1" />
    </linearGradient>
    <linearGradient
       x1="13"
       y1="3"
       x2="13"
       y2="19"
       id="linearGradient3022"
       xlink:href="#linearGradient3637"
       gradientUnits="userSpaceOnUse"
       gradientTransform="matrix(3.25,0,0,3.25,12.25,12.25)" />
    <linearGradient
       inkscape:collect="always"
       xlink:href="#linearGradient3183-0"
       id="linearGradient3077"
       gradientUnits="userSpaceOnUse"
       gradientTransform="translate(-144,104)"
       x1="104"
       y1="8"
       x2="120"
       y2="8" />
    <linearGradient
       inkscape:collect="always"
       xlink:href="#linearGradient3637"
       id="linearGradient3082"
       gradientUnits="userSpaceOnUse"
       gradientTransform="translate(-104,104)"
       x1="104"
       y1="8"
       x2="120"
       y2="8" />
    <linearGradient
       inkscape:collect="always"
       xlink:href="#linearGradient3637"
       id="linearGradient3102"
       gradientUnits="userSpaceOnUse"
       gradientTransform="matrix(5.2543554,0,0,5.2543554,-105.50523,-10.414634)"
       x1="13"
       y1="3"
       x2="13"
       y2="19" />
    <linearGradient
       inkscape:collect="always"
       xlink:href="#linearGradient3858"
       id="linearGradient3983"
       gradientUnits="userSpaceOnUse"
       gradientTransform="matrix(1.4967108,0,0,1.4967108,-2.4094778,0.11280244)"
       x1="13"
       y1="3"
       x2="13"
       y2="19" />
    <linearGradient
       inkscape:collect="always"
       xlink:href="#linearGradient3637"
       id="linearGradient4019"
       gradientUnits="userSpaceOnUse"
       gradientTransform="matrix(1.4967108,0,0,1.4967108,1.4542413,-1.2816271)"
       x1="13"
       y1="3"
       x2="13"
       y2="19" />
  </defs>
  <metadata
     id="metadata2413">
    <rdf:RDF>
      <cc:Work
         rdf:about="">
        <dc:format>image/svg+xml</dc:format>
        <dc:type
           rdf:resource="http://purl.org/dc/dcmitype/StillImage" />
        <dc:title />
      </cc:Work>
    </rdf:RDF>
  </metadata>
  <path
     inkscape:transform-center-y="0.36649443"
     inkscape:transform-center-x="0.19686872"
     sodipodi:nodetypes="ssssssssss"
     inkscape:connector-curvature="0"
     style="opacity:0.1;fill:#000000;fill-opacity:1;fill-rule:nonzero;stroke:none"
     d="m 7.7360918,10.076705 c -1.0465409,-0.02783 -4.5578473,1.895837 -4.370619,3.201562 1.1292459,7.87531 3.0176472,3.848231 4.0641876,3.876067 1.04654,0.02783 3.0913186,-2.092967 3.1191546,-3.139507 0.02784,-1.04654 -1.7661835,-3.910286 -2.8127232,-3.938122 z m -0.2484806,2.596547 c 0.7365921,0.0196 1.3199737,0.62932 1.3003816,1.365911 -0.019591,0.736592 -0.6347054,1.319831 -1.3712973,1.300239 C 6.6801043,15.319822 6.0968659,14.704697 6.116458,13.968104 6.136051,13.231514 6.7510197,12.65366 7.4876112,12.673252 z"
     id="path3885" />
  <path
     inkscape:transform-center-y="0.44737781"
     inkscape:transform-center-x="-0.49775681"
     id="path3887"
     d="m 7.50964,10.456728 c -1.4846825,-0.0395 -4.0165802,1.677249 -4.0560705,3.161931 -0.03949,1.484683 2.3723168,4.282886 3.8569993,4.322377 1.4846825,0.0395 4.4930972,-2.511286 4.5325872,-3.995968 0.03949,-1.484683 -2.8488334,-3.448851 -4.333516,-3.48834 z m -0.00929,1.585106 c 1.044973,0.02779 1.8725925,0.892788 1.8447974,1.93776 -0.027792,1.044971 -0.900429,1.872388 -1.9454014,1.844592 -1.0449709,-0.02779 -1.872387,-0.900428 -1.8445924,-1.945401 0.027794,-1.044971 0.9002269,-1.864747 1.9451973,-1.836951 z"
     style="opacity:0.15;fill:#000000;fill-opacity:1;fill-rule:nonzero;stroke:none"
     inkscape:connector-curvature="0"
     sodipodi:nodetypes="ssssssssss" />
  <path
     inkscape:transform-center-y="0.15406876"
     inkscape:transform-center-x="-0.20260573"
     style="opacity:0.3;fill:#000000;fill-opacity:1;fill-rule:nonzero;stroke:none"
     d="m 7.4418655,10.570955 c -1.8406283,-0.04896 -3.3742444,1.405189 -3.4232025,3.245817 -0.048958,1.840628 1.4051888,3.374244 3.2458166,3.423202 1.8406287,0.04896 3.3742444,-1.405187 3.4232024,-3.245816 0.04896,-1.840628 -1.405188,-3.374245 -3.2458165,-3.423203 z m 0.04061,0.968013 c 1.2954991,0.03446 2.3215364,1.106832 2.287078,2.40233 C 9.7350962,15.236796 8.6532501,16.262582 7.357752,16.228123 6.0622533,16.193665 5.0364682,15.11182 5.0709264,13.816321 5.1053841,12.520824 6.1869779,11.50451 7.4824762,11.538968 z"
     id="path3889"
     inkscape:connector-curvature="0" />
  <path
     id="path3873"
     d="m 9.5886993,18.492316 c -1.0468884,-0.0069 -4.5189639,1.98674 -4.3056216,3.288454 1.2867453,7.851113 3.0941135,3.787021 4.1410019,3.793891 1.0468874,0.0069 3.0487804,-2.154459 3.0556514,-3.201346 0.0069,-1.046889 -1.844144,-3.874128 -2.8910317,-3.880999 z m -0.1964272,2.601002 c 0.7368369,0.0049 1.3323129,0.602758 1.3274829,1.339588 -0.0049,0.736835 -0.608144,1.332278 -1.344978,1.327444 -0.7368361,-0.0049 -1.3322773,-0.608144 -1.3274445,-1.344978 0.00484,-0.736836 0.6081094,-1.32689 1.3449449,-1.322054 z"
     style="opacity:0.1;fill:#000000;fill-opacity:1;fill-rule:nonzero;stroke:none"
     inkscape:connector-curvature="0"
     sodipodi:nodetypes="ssssssssss"
     inkscape:transform-center-x="0.56656789"
     inkscape:transform-center-y="0.28133852" />
  <path
     sodipodi:nodetypes="ssssssssss"
     inkscape:connector-curvature="0"
     style="opacity:0.15;fill:#000000;fill-opacity:1;fill-rule:nonzero;stroke:none"
     d="m 9.3699042,18.876798 c -1.4851755,-0.0098 -3.9821831,1.757355 -3.9919301,3.242531 -0.00975,1.485176 2.4576172,4.234514 3.9427934,4.244261 1.4851765,0.0098 4.4418985,-2.600768 4.4516465,-4.085943 0.0098,-1.485176 -2.917335,-3.391102 -4.4025098,-3.400849 z m 0.022461,1.584973 c 1.0453178,0.0069 1.8900968,0.855105 1.8832348,1.900424 -0.0069,1.045319 -0.862748,1.890046 -1.908069,1.883182 -1.0453184,-0.0069 -1.8900451,-0.862749 -1.8831824,-1.908071 0.00686,-1.045318 0.8626989,-1.882401 1.908017,-1.87554 z"
     id="path3875"
     inkscape:transform-center-x="-0.13191825"
     inkscape:transform-center-y="0.34529215" />
  <path
     inkscape:connector-curvature="0"
     id="path3877"
     d="m 9.3044317,18.99236 c -1.8412404,-0.01209 -3.3454255,1.472486 -3.3575151,3.31372 -0.012088,1.841239 1.4724861,3.345424 3.3137198,3.357514 1.8412396,0.01209 3.3454256,-1.472486 3.3575146,-3.313719 0.01209,-1.841239 -1.472485,-3.345425 -3.3137193,-3.357514 z m 0.059989,0.967006 c 1.2959293,0.0086 2.3432373,1.060112 2.3347343,2.35604 -0.0086,1.295928 -1.06959,2.343175 -2.365522,2.334666 -1.2959294,-0.0086 -2.3431761,-1.069589 -2.3346664,-2.365521 0.0085,-1.29593 1.0695264,-2.3337 2.365455,-2.325195 z"
     style="opacity:0.3;fill:#000000;fill-opacity:1;fill-rule:nonzero;stroke:none"
     inkscape:transform-center-x="0.16073992"
     inkscape:transform-center-y="0.053082034" />
  <path
     id="path3849"
     d="m 18.889042,18.664314 c -1.037856,0.1374 -4.202218,2.590276 -3.811601,3.850193 2.355951,7.599026 3.586271,3.324715 4.624127,3.187315 1.037854,-0.137402 2.722945,-2.553885 2.585545,-3.591739 -0.137401,-1.037856 -2.360217,-3.583171 -3.398071,-3.445769 z m 0.163726,2.603265 c 0.730481,-0.0967 1.402641,0.413487 1.499349,1.143965 0.0967,0.730479 -0.418829,1.403349 -1.149308,1.500057 -0.730478,0.0967 -1.403347,-0.41883 -1.500054,-1.149309 -0.0967,-0.730479 0.419537,-1.398006 1.150013,-1.494713 z"
     style="opacity:0.1;fill:#000000;fill-opacity:1;fill-rule:nonzero;stroke:none"
     inkscape:connector-curvature="0"
     sodipodi:nodetypes="ssssssssss"
     inkscape:transform-center-x="0.4446968"
     inkscape:transform-center-y="0.58573564" />
  <path
     sodipodi:nodetypes="ssssssssss"
     inkscape:connector-curvature="0"
     style="opacity:0.15;fill:#000000;fill-opacity:1;fill-rule:nonzero;stroke:none"
     d="m 18.725294,19.075267 c -1.472361,0.194925 -3.702151,2.28914 -3.507226,3.761501 0.194925,1.47236 3.017484,3.855618 4.489845,3.660693 1.47236,-0.194926 4.041308,-3.187838 3.846382,-4.6602 -0.194924,-1.47236 -3.356641,-2.956918 -4.829001,-2.761994 z m 0.240572,1.566772 c 1.036299,-0.137195 1.989868,0.586597 2.127062,1.622895 0.137195,1.036301 -0.594175,1.990871 -1.630474,2.128066 -1.036299,0.137195 -1.990871,-0.594175 -2.128066,-1.630474 -0.137193,-1.036299 0.59518,-1.983292 1.631478,-2.120487 z"
     id="path3851"
     inkscape:transform-center-x="-0.27111393"
     inkscape:transform-center-y="0.5280789" />
  <path
     inkscape:connector-curvature="0"
     id="path3853"
     d="m 18.676364,19.198747 c -1.825353,0.241657 -3.110704,1.919272 -2.869046,3.744625 0.241656,1.825352 1.919272,3.110703 3.744624,2.869046 1.825354,-0.241658 3.110704,-1.919274 2.869047,-3.744626 -0.241657,-1.825352 -1.919273,-3.110702 -3.744625,-2.869045 z m 0.19262,0.949525 c 1.284746,-0.170088 2.466929,0.727231 2.637015,2.011979 0.170087,1.284746 -0.736626,2.468171 -2.021373,2.638257 -1.284746,0.170087 -2.468172,-0.736626 -2.638258,-2.021372 -0.170087,-1.284747 0.737869,-2.458778 2.022616,-2.628864 z"
     style="opacity:0.3;fill:#000000;fill-opacity:1;fill-rule:nonzero;stroke:none"
     inkscape:transform-center-x="0.00017342173"
     inkscape:transform-center-y="0.25032941" />
  <path
     inkscape:transform-center-y="0.54608804"
     inkscape:transform-center-x="0.62401103"
     sodipodi:nodetypes="ssssssssss"
     inkscape:connector-curvature="0"
     style="opacity:0.1;fill:#000000;fill-opacity:1;fill-rule:nonzero;stroke:none"
     d="m 24.868484,8.2343126 c -1.044562,0.070097 -4.360716,2.3135084 -4.052276,3.5960204 1.860318,7.735304 3.364089,3.549363 4.408651,3.479269 1.044562,-0.0701 2.882184,-2.372716 2.812089,-3.417277 -0.0701,-1.044561 -2.123903,-3.7281053 -3.168464,-3.6580124 z m -0.0048,2.6084054 c 0.735198,-0.04933 1.373011,0.503203 1.422345,1.238402 0.04933,0.735197 -0.508577,1.373371 -1.243777,1.422705 -0.735166,0.04933 -1.373339,-0.508578 -1.422674,-1.243777 -0.04933,-0.735199 0.508939,-1.367995 1.244138,-1.41733 z"
     id="path3861" />
  <path
     inkscape:transform-center-y="0.54641798"
     inkscape:transform-center-x="-0.085724368"
     id="path3863"
     d="m 24.678541,8.6338352 c -1.481876,0.099434 -3.842248,2.0452918 -3.74281,3.5271678 0.09943,1.481875 2.762206,4.042426 4.244081,3.942988 1.481876,-0.09943 4.238731,-2.920212 4.139292,-4.402086 -0.09943,-1.481877 -3.158689,-3.167508 -4.640563,-3.0680698 z m 0.138894,1.5790368 c 1.042995,-0.06999 1.947833,0.713872 2.017822,1.756867 0.06999,1.042995 -0.721498,1.948344 -1.764494,2.018334 -1.042995,0.06999 -1.948344,-0.721499 -2.018333,-1.764494 -0.06999,-1.042996 0.72201,-1.940719 1.765005,-2.010707 z"
     style="opacity:0.15;fill:#000000;fill-opacity:1;fill-rule:nonzero;stroke:none"
     inkscape:connector-curvature="0"
     sodipodi:nodetypes="ssssssssss" />
  <path
     inkscape:transform-center-y="0.26029952"
     inkscape:transform-center-x="0.196409"
     style="opacity:0.3;fill:#000000;fill-opacity:1;fill-rule:nonzero;stroke:none"
     d="m 24.621738,8.7538978 c -1.837147,0.1232842 -3.228149,1.7143892 -3.10487,3.5515372 0.123284,1.837149 1.714389,3.22815 3.551537,3.104871 1.837148,-0.123284 3.228149,-1.71439 3.104871,-3.551538 -0.123285,-1.837148 -1.71439,-3.228149 -3.551538,-3.1048702 z m 0.130904,0.9599816 c 1.293048,-0.086762 2.414817,0.8850186 2.501585,2.1780666 0.08676,1.293049 -0.894474,2.415452 -2.187522,2.50222 -1.293049,0.08676 -2.415453,-0.894474 -2.50222,-2.187522 -0.08676,-1.293049 0.895108,-2.405997 2.188157,-2.4927646 z"
     id="path3865"
     inkscape:connector-curvature="0" />
  <path
     sodipodi:nodetypes="ssssssssss"
     inkscape:connector-curvature="0"
     style="opacity:0.1;fill:#000000;fill-opacity:1;fill-rule:nonzero;stroke:none"
     d="m 14.029843,5.4909841 c -1.046911,0 -4.5058277,2.016355 -4.2839472,3.3166402 1.3382432,7.8424997 3.1189012,3.7666337 4.1658122,3.7666337 1.04691,0 3.034575,-2.174423 3.034575,-3.2213323 0,-1.0469108 -1.869531,-3.8619416 -2.91644,-3.8619416 z M 13.850489,8.093221 c 0.736853,0 1.336241,0.5939985 1.336241,1.3308516 0,0.7368514 -0.599388,1.3362394 -1.336241,1.3362394 -0.736851,0 -1.336239,-0.599388 -1.336239,-1.3362394 0,-0.7368531 0.599388,-1.3308516 1.336239,-1.3308516 z"
     id="path3077" />
  <path
     id="path3075"
     d="m 13.813576,5.8768934 c -1.485209,0 -3.9705641,1.7834529 -3.9705641,3.2686617 0,1.4852079 2.4853551,4.2182919 3.9705641,4.2182919 1.485207,0 4.158787,-2.851487 4.158787,-4.3366948 0,-1.4852088 -2.67358,-3.1502588 -4.158787,-3.1502588 z m 0.03286,1.5847924 c 1.045341,0 1.895668,0.8426816 1.895668,1.8880223 0,1.0453419 -0.850327,1.8956679 -1.895668,1.8956679 -1.045341,0 -1.895666,-0.850326 -1.895666,-1.8956679 0,-1.0453407 0.850325,-1.8880223 1.895666,-1.8880223 z"
     style="opacity:0.15;fill:#000000;fill-opacity:1;fill-rule:nonzero;stroke:none"
     inkscape:connector-curvature="0"
     sodipodi:nodetypes="ssssssssss" />
  <path
     style="opacity:0.3;fill:#000000;fill-opacity:1;fill-rule:nonzero;stroke:none"
     d="m 13.748863,5.9928827 c -1.84128,0 -3.335689,1.4944093 -3.335689,3.3356891 0,1.8412782 1.494409,3.3356892 3.335689,3.3356892 1.841278,0 3.335689,-1.494411 3.335689,-3.3356892 0,-1.8412798 -1.494411,-3.3356891 -3.335689,-3.3356891 z m 0.06634,0.966592 c 1.295956,0 2.350144,1.0447105 2.350144,2.3406671 0,1.2959582 -1.054188,2.3501442 -2.350144,2.3501442 -1.295958,0 -2.350145,-1.054186 -2.350145,-2.3501442 0,-1.2959566 1.054187,-2.3406671 2.350145,-2.3406671 z"
     id="path3065"
     inkscape:connector-curvature="0" />
  <g
     id="layer2"
     style="display:none"
     transform="translate(0,-64)">
    <rect
       width="86"
       height="85"
       rx="6"
       ry="6"
       x="5"
       y="7"
       clip-path="url(#clipPath3625)"
       id="rect3745"
       style="opacity:0.9;fill:url(#ButtonShadow);fill-opacity:1;fill-rule:nonzero;stroke:none;filter:url(#filter3174)" />
  </g>
  <g
     id="layer1"
     style="display:none"
     transform="translate(0,-64)">
    <rect
       width="84"
       height="84"
       rx="6"
       ry="6"
       x="6"
       y="6"
       id="rect2419"
       style="opacity:0.8;fill:#000000;fill-opacity:1;fill-rule:nonzero;stroke:none" />
    <path
       d="m 14,10 c -2.216,0 -4,1.784 -4,4 l 0,68 c 0,2.216 1.784,4 4,4 l 68,0 c 2.216,0 4,-1.784 4,-4 l 0,-68 c 0,-2.216 -1.784,-4 -4,-4 l -68,0 z m 0,3.0625 68,0 c 0.578769,0 0.9375,0.358731 0.9375,0.9375 l 0,68 c 0,0.578769 -0.358731,0.9375 -0.9375,0.9375 l -68,0 c -0.578769,0 -0.9375,-0.358731 -0.9375,-0.9375 l 0,-68 c 0,-0.578769 0.358731,-0.9375 0.9375,-0.9375 z"
       inkscape:connector-curvature="0"
       id="rect3726"
       style="opacity:0.07999998;fill:#000000;fill-opacity:1;fill-rule:nonzero;stroke:none" />
    <path
       d="M 12,6 C 8.676,6 6,8.676 6,12 l 0,72 c 0,3.324 2.676,6 6,6 l 72,0 c 3.324,0 6,-2.676 6,-6 L 90,12 C 90,8.676 87.324,6 84,6 L 12,6 z m 2,4 68,0 c 2.216,0 4,1.784 4,4 l 0,68 c 0,2.216 -1.784,4 -4,4 l -68,0 c -2.216,0 -4,-1.784 -4,-4 l 0,-68 c 0,-2.216 1.784,-4 4,-4 z"
       inkscape:connector-curvature="0"
       id="rect3629"
       style="fill:url(#linearGradient3643);fill-opacity:1;fill-rule:nonzero;stroke:none" />
    <path
       d="M 12,6 C 8.676,6 6,8.676 6,12 l 0,2 0,68 0,2 c 0,0.334721 0.04135,0.6507 0.09375,0.96875 0.0487,0.295596 0.09704,0.596915 0.1875,0.875 0.00988,0.03038 0.020892,0.0636 0.03125,0.09375 0.098865,0.287771 0.2348802,0.547452 0.375,0.8125 0.1445918,0.273507 0.3156161,0.535615 0.5,0.78125 0.1843839,0.245635 0.3737765,0.473472 0.59375,0.6875 0.439947,0.428056 0.94291,0.814526 1.5,1.09375 0.278545,0.139612 0.5734731,0.246947 0.875,0.34375 -0.2562018,-0.100222 -0.4867109,-0.236272 -0.71875,-0.375 -0.00741,-0.0044 -0.023866,0.0045 -0.03125,0 -0.031933,-0.0193 -0.062293,-0.04251 -0.09375,-0.0625 -0.120395,-0.0767 -0.2310226,-0.163513 -0.34375,-0.25 -0.1061728,-0.0808 -0.2132809,-0.161112 -0.3125,-0.25 C 8.4783201,88.557317 8.3087904,88.373362 8.15625,88.1875 8.0486711,88.057245 7.9378561,87.922215 7.84375,87.78125 7.818661,87.74287 7.805304,87.69538 7.78125,87.65625 7.716487,87.553218 7.6510225,87.451733 7.59375,87.34375 7.4927417,87.149044 7.3880752,86.928049 7.3125,86.71875 7.30454,86.69694 7.288911,86.6782 7.28125,86.65625 7.2494249,86.5643 7.2454455,86.469419 7.21875,86.375 7.1884177,86.268382 7.1483606,86.171969 7.125,86.0625 7.0521214,85.720988 7,85.364295 7,85 L 7,83 7,15 7,13 C 7,10.218152 9.2181517,8 12,8 l 2,0 68,0 2,0 c 2.781848,0 5,2.218152 5,5 l 0,2 0,68 0,2 c 0,0.364295 -0.05212,0.720988 -0.125,1.0625 -0.04415,0.206893 -0.08838,0.397658 -0.15625,0.59375 -0.0077,0.02195 -0.0233,0.04069 -0.03125,0.0625 -0.06274,0.173739 -0.138383,0.367449 -0.21875,0.53125 -0.04158,0.0828 -0.07904,0.169954 -0.125,0.25 -0.0546,0.09721 -0.126774,0.18835 -0.1875,0.28125 -0.09411,0.140965 -0.204921,0.275995 -0.3125,0.40625 -0.143174,0.17445 -0.303141,0.346998 -0.46875,0.5 -0.01117,0.0102 -0.01998,0.02115 -0.03125,0.03125 -0.138386,0.125556 -0.285091,0.234436 -0.4375,0.34375 -0.102571,0.07315 -0.204318,0.153364 -0.3125,0.21875 -0.0074,0.0045 -0.02384,-0.0044 -0.03125,0 -0.232039,0.138728 -0.462548,0.274778 -0.71875,0.375 0.301527,-0.0968 0.596455,-0.204138 0.875,-0.34375 0.55709,-0.279224 1.060053,-0.665694 1.5,-1.09375 0.219973,-0.214028 0.409366,-0.441865 0.59375,-0.6875 0.184384,-0.245635 0.355408,-0.507743 0.5,-0.78125 0.14012,-0.265048 0.276135,-0.524729 0.375,-0.8125 0.01041,-0.03078 0.02133,-0.06274 0.03125,-0.09375 0.09046,-0.278085 0.1388,-0.579404 0.1875,-0.875 C 89.95865,84.6507 90,84.334721 90,84 l 0,-2 0,-68 0,-2 C 90,8.676 87.324,6 84,6 L 12,6 z"
       inkscape:connector-curvature="0"
       id="rect3728"
       style="fill:url(#linearGradient3188);fill-opacity:1;fill-rule:nonzero;stroke:none" />
    <path
       d="M 12,90 C 8.676,90 6,87.324 6,84 L 6,82 6,14 6,12 c 0,-0.334721 0.04135,-0.6507 0.09375,-0.96875 0.0487,-0.295596 0.09704,-0.596915 0.1875,-0.875 C 6.29113,10.12587 6.302142,10.09265 6.3125,10.0625 6.411365,9.774729 6.5473802,9.515048 6.6875,9.25 6.8320918,8.976493 7.0031161,8.714385 7.1875,8.46875 7.3718839,8.223115 7.5612765,7.995278 7.78125,7.78125 8.221197,7.353194 8.72416,6.966724 9.28125,6.6875 9.559795,6.547888 9.8547231,6.440553 10.15625,6.34375 9.9000482,6.443972 9.6695391,6.580022 9.4375,6.71875 c -0.00741,0.0044 -0.023866,-0.0045 -0.03125,0 -0.031933,0.0193 -0.062293,0.04251 -0.09375,0.0625 -0.120395,0.0767 -0.2310226,0.163513 -0.34375,0.25 -0.1061728,0.0808 -0.2132809,0.161112 -0.3125,0.25 C 8.4783201,7.442683 8.3087904,7.626638 8.15625,7.8125 8.0486711,7.942755 7.9378561,8.077785 7.84375,8.21875 7.818661,8.25713 7.805304,8.30462 7.78125,8.34375 7.716487,8.446782 7.6510225,8.548267 7.59375,8.65625 7.4927417,8.850956 7.3880752,9.071951 7.3125,9.28125 7.30454,9.30306 7.288911,9.3218 7.28125,9.34375 7.2494249,9.4357 7.2454455,9.530581 7.21875,9.625 7.1884177,9.731618 7.1483606,9.828031 7.125,9.9375 7.0521214,10.279012 7,10.635705 7,11 l 0,2 0,68 0,2 c 0,2.781848 2.2181517,5 5,5 l 2,0 68,0 2,0 c 2.781848,0 5,-2.218152 5,-5 l 0,-2 0,-68 0,-2 C 89,10.635705 88.94788,10.279012 88.875,9.9375 88.83085,9.730607 88.78662,9.539842 88.71875,9.34375 88.71105,9.3218 88.69545,9.30306 88.6875,9.28125 88.62476,9.107511 88.549117,8.913801 88.46875,8.75 88.42717,8.6672 88.38971,8.580046 88.34375,8.5 88.28915,8.40279 88.216976,8.31165 88.15625,8.21875 88.06214,8.077785 87.951329,7.942755 87.84375,7.8125 87.700576,7.63805 87.540609,7.465502 87.375,7.3125 87.36383,7.3023 87.35502,7.29135 87.34375,7.28125 87.205364,7.155694 87.058659,7.046814 86.90625,6.9375 86.803679,6.86435 86.701932,6.784136 86.59375,6.71875 c -0.0074,-0.0045 -0.02384,0.0044 -0.03125,0 -0.232039,-0.138728 -0.462548,-0.274778 -0.71875,-0.375 0.301527,0.0968 0.596455,0.204138 0.875,0.34375 0.55709,0.279224 1.060053,0.665694 1.5,1.09375 0.219973,0.214028 0.409366,0.441865 0.59375,0.6875 0.184384,0.245635 0.355408,0.507743 0.5,0.78125 0.14012,0.265048 0.276135,0.524729 0.375,0.8125 0.01041,0.03078 0.02133,0.06274 0.03125,0.09375 0.09046,0.278085 0.1388,0.579404 0.1875,0.875 C 89.95865,11.3493 90,11.665279 90,12 l 0,2 0,68 0,2 c 0,3.324 -2.676,6 -6,6 l -72,0 z"
       inkscape:connector-curvature="0"
       id="path3615"
       style="opacity:0.6;fill:url(#radialGradient3619);fill-opacity:1;fill-rule:nonzero;stroke:none" />
    <rect
       width="84"
       height="84"
       rx="6"
       ry="6"
       x="6"
       y="106"
       id="rect2841"
       style="fill:url(#linearGradient2843);fill-opacity:1;fill-rule:nonzero;stroke:none" />
    <rect
       width="76"
       height="76"
       rx="4"
       ry="4"
       x="10"
       y="110"
       id="rect3634"
       style="fill:#ff0000;fill-opacity:1;fill-rule:nonzero;stroke:none" />
    <path
       d="m 14,9 c -2.752703,0 -5,2.247297 -5,5 l 0,68 c 0,2.752703 2.247297,5 5,5 l 68,0 c 2.752703,0 5,-2.247297 5,-5 L 87,14 C 87,11.247297 84.752703,9 82,9 L 14,9 z m 0,2 68,0 c 1.679297,0 3,1.320703 3,3 l 0,68 c 0,1.679297 -1.320703,3 -3,3 l -68,0 c -1.679297,0 -3,-1.320703 -3,-3 l 0,-68 c 0,-1.679297 1.320703,-3 3,-3 z"
       inkscape:connector-curvature="0"
       transform="translate(-110,0)"
       clip-path="url(#clipPath3649)"
       id="rect3647"
       style="font-size:medium;font-style:normal;font-variant:normal;font-weight:normal;font-stretch:normal;text-indent:0;text-align:start;text-decoration:none;line-height:normal;letter-spacing:normal;word-spacing:normal;text-transform:none;direction:ltr;block-progression:tb;writing-mode:lr-tb;text-anchor:start;color:#000000;fill:#000000;fill-opacity:1;stroke:none;stroke-width:2;marker:none;visibility:visible;display:inline;overflow:visible;filter:url(#filter3657);enable-background:accumulate;font-family:Abandoned Bitplane;-inkscape-font-specification:Abandoned Bitplane" />
    <path
       d="m 14.089286,10 c -2.216,0 -4,1.784 -4,4 l 0,68 c 0,2.216 1.784,4 4,4 l 68,0 c 2.216,0 4,-1.784 4,-4 l 0,-68 c 0,-2.216 -1.784,-4 -4,-4 l -68,0 z m 0,2 68,0 c 1.140301,0 2,0.859699 2,2 l 0,68 c 0,1.140301 -0.859699,2 -2,2 l -68,0 c -1.140301,0 -2,-0.859699 -2,-2 l 0,-68 c 0,-1.140301 0.859699,-2 2,-2 z"
       inkscape:connector-curvature="0"
       id="path3709"
       style="opacity:0.16000001;fill:#000000;fill-opacity:1;fill-rule:nonzero;stroke:none" />
    <path
       d="m 14,10 c -2.216,0 -4,1.784 -4,4 l 0,68 c 0,2.216 1.784,4 4,4 l 68,0 c 2.216,0 4,-1.784 4,-4 l 0,-68 c 0,-2.216 -1.784,-4 -4,-4 l -68,0 z m 0,1 68,0 c 1.673848,0 3,1.326152 3,3 l 0,68 c 0,1.673848 -1.326152,3 -3,3 l -68,0 c -1.673848,0 -3,-1.326152 -3,-3 l 0,-68 c 0,-1.673848 1.326152,-3 3,-3 z"
       inkscape:connector-curvature="0"
       id="path3707"
       style="opacity:0.36000001;fill:#000000;fill-opacity:1;fill-rule:nonzero;stroke:none" />
  </g>
  <g
     id="layer5"
     style="display:none"
     transform="translate(0,-64)">
    <rect
       width="66"
       height="66"
       rx="12"
       ry="12"
       x="15"
       y="15"
       clip-path="url(#clipPath3613)"
       id="rect3171"
       style="opacity:0.1;fill:url(#linearGradient3613);fill-opacity:1;fill-rule:nonzero;stroke:#ffffff;stroke-width:0.5;stroke-linecap:round;stroke-linejoin:miter;stroke-miterlimit:4;stroke-opacity:1;stroke-dasharray:none;stroke-dashoffset:0;filter:url(#filter3794)" />
  </g>
  <path
     style="opacity:0.1;fill:#000000;fill-opacity:1;stroke:none;display:inline"
     d="m 23.397052,4.7958958 -1.187267,1.8882981 c 1.316951,0.6107865 4.230976,1.9166511 5.402368,4.2338811 0.657198,1.300058 0.04794,3.317313 0.04794,4.737899 0,0.932918 -0.647251,3.122641 -0.647251,3.122641 0,0 1.828583,0.135671 2.392219,0.208367 0.794448,0.03519 1.167317,-0.156493 1.270971,-0.741323 0.08399,-0.939569 0.137141,-1.748123 0.144748,-2.603153 0.03993,-4.488938 -2.773058,-8.6996204 -6.325173,-11.0411282 -0.385787,-0.2726949 -0.862833,-0.1544034 -1.098552,0.194518 z"
     id="path3999"
     inkscape:connector-curvature="0"
     sodipodi:nodetypes="ccsscccscc" />
  <path
     style="opacity:0.1;fill:#000000;fill-opacity:1;stroke:none;display:inline"
     d="M 22.958481,7.1064202 C 21.018009,5.9359454 16.47899,4.1359021 14.056025,4.1359021 c -7.1032893,0 -12.9010336,5.797743 -12.9010336,12.9010339 0,7.10329 5.7977443,12.901033 12.9010336,12.901033 6.234948,0 12.101435,-6.559764 13.286228,-12.455126 -1.205926,-0.366255 -8.045057,-1.714877 -8.469378,-2.443175 -0.371038,-0.62055 4.383423,-7.7589277 4.085606,-7.9332464 z m 0.935323,12.0758788 c -1.207028,4.813644 -4.706496,8.408307 -9.89457,8.408307 -0.02985,0 -0.05539,2.35e-4 -0.08519,0 -0.0298,2.35e-4 -0.06479,0 -0.09465,0 -6.1209915,0 -11.0837208,-4.953264 -11.0837208,-11.074255 0,-6.12099 4.9627293,-11.0837195 11.0837208,-11.0837195 0.02985,0 0.06485,-2.363e-4 0.09465,0 0.02981,-2.363e-4 0.05533,0 0.08519,0 2.168345,0 3.381177,1.2891357 4.446785,1.5675255 l -5.85294,10.279757 z"
     id="path3923"
     inkscape:connector-curvature="0"
     sodipodi:nodetypes="csssccccscssscsccc" />
  <path
     style="opacity:0.35;fill:#000000;fill-opacity:1;stroke:none;display:inline"
     d="M 20.416623,6.3791493 C 18.54855,5.2606951 16.387684,4.5713004 14.056025,4.5713004 c -6.8729409,0 -12.4656355,5.5926936 -12.4656355,12.4656356 0,6.872941 5.5926946,12.465635 12.4656355,12.465635 6.030193,0 10.563977,-4.32965 11.709806,-10.026852 l -1.052019,-0.271258 c -1.207028,4.813643 -5.526504,8.386145 -10.714578,8.386145 -6.120991,0 -11.08372,-4.953264 -11.08372,-11.074255 0,-6.12099 4.962729,-11.0837195 11.08372,-11.0837195 1.891369,0 4.189184,0.5241053 5.928132,1.3982729 0.07121,0.035789 -7.59274,10.1167446 -7.59274,10.1167446 l 1.514486,0.358997 c 0,0 6.829048,-9.7863279 6.981648,-9.9750518 0.144113,-0.4278928 -0.0811,-0.7112672 -0.414137,-0.9524449 z"
     id="path3989"
     inkscape:connector-curvature="0"
     sodipodi:nodetypes="csssccsssscccc" />
  <path
     style="opacity:0.35;fill:#000000;fill-opacity:1;stroke:none;display:inline"
     d="m 24.280341,4.9847188 -0.459529,0.7291303 c 3.114065,1.9618503 5.12586,5.4554279 5.12586,9.4080719 0,0.932918 -4.351964,0.271079 -3.785454,1.011296 L 20.429503,12.338806 24.83496,5.598668 C 24.483575,5.4553815 24.233831,4.3191687 23.567031,5.3210632 L 16.100252,16.30836 28.946227,18.608589 c 0.627721,0.06835 1.111696,-0.156879 1.193058,-0.505138 0.160133,-0.796209 0.236629,-1.618197 0.236629,-2.460945 0,-4.54128 -2.457204,-8.4794201 -6.095573,-10.6577872 z"
     id="path3919"
     inkscape:connector-curvature="0"
     sodipodi:nodetypes="ccscccccccsc" />
  <path
     style="opacity:0.45;fill:#000000;fill-opacity:1;stroke:none;display:inline"
     d="M 20.225241,6.6919614 C 18.435255,5.6259801 16.289494,5.0634892 14.056025,5.0634892 c -6.6094748,0 -11.9734464,5.3639718 -11.9734464,11.9734468 0,6.609475 5.3639716,11.973446 11.9734464,11.973446 5.799323,0 10.628006,-4.130176 11.727351,-9.607152 l -1.13582,-0.208235 c -1.247018,4.755417 -5.529967,8.282028 -10.676718,8.282028 -6.1209903,0 -11.0837195,-4.962729 -11.0837195,-11.083719 0,-6.120991 4.9627292,-11.0837204 11.0837195,-11.0837204 2.203136,0 4.202774,0.6284983 5.928202,1.7367442 0.04152,0.030478 -7.853058,10.1011992 -7.853058,10.1011992 l 1.298577,0.204818 c 0,0 6.940561,-10.0934568 6.955136,-10.1137253 0.121193,-0.1685314 0.08888,-0.4540396 -0.07446,-0.5466583 z"
     id="path4002"
     inkscape:connector-curvature="0"
     sodipodi:nodetypes="csssccssscccsc" />
  <path
     style="opacity:0.45;fill:#000000;fill-opacity:1;stroke:none;display:inline"
     d="m 24.005851,5.3917211 -0.19877,0.293421 c 3.068343,1.9708036 5.111195,5.3958779 5.111195,9.3137319 0,0.97424 -10.835321,-0.451046 -11.071373,0.449118 l -0.792479,0.640281 12.156547,2.210083 c 0.252619,0.01637 0.381726,-0.09727 0.436123,-0.289557 0.153577,-0.76512 0.246096,-1.556142 0.246095,-2.366293 0,-4.376005 -2.380247,-8.1622223 -5.887338,-10.2507849 z"
     id="path3913"
     inkscape:connector-curvature="0"
     sodipodi:nodetypes="ccsccccsc" />
  <path
     style="fill:url(#linearGradient3983);fill-opacity:1;stroke:none;display:inline"
     d="m 14.056025,4.5996963 c -6.6094748,0 -11.9734464,5.3639705 -11.9734464,11.9734457 0,6.609477 5.3639716,11.973446 11.9734464,11.973446 5.63699,0 10.334306,-3.914092 11.604305,-9.162289 L 13.175763,17.065332 20.378761,6.4454052 C 18.539507,5.2938977 16.384779,4.5996963 14.056025,4.5996963 z m -0.331281,1.8835702 c 1.493619,0 2.70704,1.2039546 2.70704,2.6975747 0,1.4936188 -1.071444,2.6313178 -2.565063,2.6313178 -1.49362,0 -2.849017,-1.137699 -2.849017,-2.6313178 0,-1.4936201 1.21342,-2.697576 2.70704,-2.697576 z M 7.2600291,10.969759 c 0.4359735,-0.01019 0.8814994,0.08971 1.2967288,0.302886 1.3287348,0.682175 1.8558581,2.305892 1.1736818,3.634627 C 9.0482644,16.236006 7.4150818,16.753664 6.0863474,16.071488 4.757613,15.389313 4.2304904,13.765596 4.9126656,12.436861 5.3816612,11.523357 6.300888,10.99213 7.2600291,10.969759 z m 2.0255476,8.651169 c 0.6921258,3.66e-4 1.3841703,0.257257 1.9119663,0.78561 1.055588,1.056708 1.056707,2.768342 0,3.823931 -1.056708,1.055589 -2.7683428,1.056706 -3.8239318,0 -1.0555888,-1.056709 -1.0567075,-2.768342 0,-3.823931 0.528354,-0.527794 1.2198398,-0.785976 1.9119655,-0.78561 z m 9.6828743,0.10412 c 0.867672,-0.02936 1.742128,0.361474 2.290572,1.116891 0.877509,1.208668 0.602896,2.899096 -0.605771,3.776606 -1.208668,0.877509 -2.899096,0.602896 -3.776606,-0.605771 -0.877509,-1.208667 -0.61236,-2.889631 0.596308,-3.767141 0.453249,-0.329066 0.974893,-0.50297 1.495497,-0.520585 z"
     id="path3971"
     inkscape:connector-curvature="0" />
  <path
     style="fill:url(#linearGradient4019);fill-opacity:1;stroke:none;display:inline"
     d="M 24.24248,5.0509761 17.039481,15.670902 29.524048,17.98987 c 0.219097,-0.90541 0.369142,-1.838673 0.369141,-2.811157 0,-4.280721 -2.269787,-8.011035 -5.650709,-10.1277369 z m 0.643631,4.1836066 c 1.053846,0.01236 2.055676,0.6480115 2.479876,1.6848013 0.565601,1.382387 -0.09418,2.955444 -1.476566,3.521046 -1.382388,0.565599 -2.96491,-0.09418 -3.530511,-1.476568 -0.565602,-1.382388 0.09418,-2.9649104 1.476567,-3.5305102 0.345597,-0.1414013 0.699353,-0.2029062 1.050634,-0.1987691 z"
     id="path2505"
     inkscape:connector-curvature="0" />
  <path
     style="opacity:0.15;fill:#000000;fill-opacity:1;stroke:none;display:inline"
     d="m 25.537282,19.355905 c -1.419799,5.028896 -6.00014,8.736355 -11.481257,8.736355 -6.5326617,0 -11.8507636,-5.242776 -11.9734464,-11.746282 -0.00143,0.07647 0,0.150351 0,0.227164 0,6.609475 5.3639716,11.973446 11.9734464,11.973446 5.637551,0 10.334648,-3.913084 11.604305,-9.162289 l -0.123054,-0.0284 z"
     id="path4013"
     inkscape:connector-curvature="0" />
  <path
     style="opacity:0.15;fill:#000000;fill-opacity:1;stroke:none;display:inline"
     d="m 29.475439,17.636297 0.123053,0.0284 c 0.218891,-0.904972 0.28687,-1.874492 0.28687,-2.846416 0,-0.07682 -0.03383,-0.166365 -0.03526,-0.242835 -0.01975,1.046851 -0.102273,2.096069 -0.374656,3.060856 z"
     id="path3904"
     inkscape:connector-curvature="0"
     sodipodi:nodetypes="ccscc" />
  <path
     style="opacity:0.75;fill:#ffffff;fill-opacity:1;stroke:none;display:inline"
     d="M 20.378761,6.4454052 C 18.539342,5.2937334 16.384779,4.5996963 14.056025,4.5996963 c -6.6094748,0 -11.9734464,5.3639705 -11.9734464,11.9734457 0,0.07681 -0.00143,0.160159 0,0.23663 C 2.2052612,10.306266 7.5233633,5.0634892 14.056025,5.0634892 c 2.235014,0 4.304278,0.6457475 6.095573,1.713197 l 0.227163,-0.331281 z"
     id="path4010"
     inkscape:connector-curvature="0" />
  <path
     style="opacity:0.75;fill:#ffffff;fill-opacity:1;stroke:none;display:inline"
     d="m 24.24248,5.0509761 -0.227164,0.331281 c 3.444431,2.0525688 5.797164,5.7546189 5.877873,10.0330849 0.0015,-0.07647 0,-0.159816 0,-0.236629 0,-4.280722 -2.269484,-8.0107322 -5.650709,-10.1277369 z"
     id="path3888"
     inkscape:connector-curvature="0" />
  <path
     style="opacity:0.75;fill:#ffffff;fill-opacity:1;stroke:none;display:inline"
     id="path3890"
     inkscape:connector-curvature="0"
     d="m 13.736282,12.139839 c -1.50143,0 -2.734087,-1.102416 -2.730402,-3.034897 3.3e-5,-0.017983 -3.32e-4,-0.03602 0,-0.053934 0.02787,1.5234153 1.230788,2.7850673 2.714769,2.7850673 1.48398,0 2.730483,-1.103647 2.725191,-2.7850673 3.31e-4,0.017915 -3.5e-5,0.035938 0,0.053934 0.0037,1.892978 -1.20813,3.034897 -2.709558,3.034897 z"
     sodipodi:nodetypes="sscscss" />
  <path
     sodipodi:nodetypes="sscscss"
     d="m 13.725859,6.2796975 c 1.50143,0 2.723665,1.175367 2.719981,3.1078475 -3.5e-5,0.017983 3.31e-4,0.03602 0,0.053934 -0.02787,-1.5234151 -1.23079,-2.7538044 -2.714771,-2.7538044 -1.483978,0 -2.730481,1.0723826 -2.725189,2.7538044 -3.33e-4,-0.017915 3.5e-5,-0.035938 0,-0.053934 -0.0037,-1.8929785 1.218551,-3.1078475 2.719979,-3.1078475 z"
     inkscape:connector-curvature="0"
     id="path3892"
     style="opacity:0.15;fill:#000000;fill-opacity:1;stroke:none;display:inline" />
  <path
     sodipodi:nodetypes="sscscss"
     d="m 19.470644,25.294184 c -1.488442,0.197053 -2.855123,-0.734049 -3.105097,-2.650297 -0.0023,-0.01783 -0.005,-0.03567 -0.0071,-0.05347 0.227566,1.50658 1.585669,2.599443 3.056812,2.40468 1.471143,-0.194764 2.562016,-1.452462 2.336094,-3.118643 0.0027,0.01771 0.0046,0.03564 0.0071,0.05347 0.252095,1.876121 -0.799366,3.167206 -2.287807,3.36426 z"
     inkscape:connector-curvature="0"
     id="path3855"
     style="opacity:0.75;fill:#ffffff;fill-opacity:1;stroke:none;display:inline"
     inkscape:transform-center-x="0.03718261"
     inkscape:transform-center-y="1.3430212" />
  <path
     style="opacity:0.15;fill:#000000;fill-opacity:1;stroke:none;display:inline"
     id="path3857"
     inkscape:connector-curvature="0"
     d="m 18.691202,19.486101 c 1.488441,-0.197054 2.854364,0.807735 3.104339,2.723982 0.0023,0.01783 0.005,0.03567 0.0071,0.05347 -0.227566,-1.506581 -1.581564,-2.568449 -3.052709,-2.373685 -1.471143,0.194762 -2.566119,1.421465 -2.340197,3.087648 -0.0027,-0.01771 -0.0046,-0.03564 -0.0071,-0.05347 -0.252094,-1.876121 0.800123,-3.240891 2.288565,-3.437945 z"
     sodipodi:nodetypes="sscscss"
     inkscape:transform-center-x="0.030372304"
     inkscape:transform-center-y="-1.0356419" />
  <path
     inkscape:transform-center-y="1.4378439"
     inkscape:transform-center-x="0.23106924"
     style="opacity:0.75;fill:#ffffff;fill-opacity:1;stroke:none;display:inline"
     id="path3867"
     inkscape:connector-curvature="0"
     d="m 25.02074,14.887904 c -1.498058,0.10052 -2.801761,-0.916889 -2.927469,-2.84528 -0.0012,-0.01796 -0.0027,-0.03592 -0.0037,-0.05381 0.129804,1.518132 1.414496,2.696414 2.895146,2.597058 1.480651,-0.09935 2.650464,-1.283984 2.532609,-2.961278 0.0015,0.01785 0.0023,0.03587 0.0037,0.05381 0.130415,1.888486 -1.002225,3.108975 -2.500285,3.2095 z"
     sodipodi:nodetypes="sscscss" />
  <path
     inkscape:transform-center-y="-1.1149883"
     inkscape:transform-center-x="0.21865458"
     sodipodi:nodetypes="sscscss"
     d="m 24.617989,9.041609 c 1.49806,-0.1005207 2.796249,0.990373 2.921956,2.918764 0.0012,0.01795 0.0027,0.03592 0.0037,0.05381 -0.129804,-1.518131 -1.412402,-2.6652198 -2.893053,-2.5658631 -1.480649,0.099353 -2.652557,1.2527891 -2.534702,2.9300831 -0.0015,-0.01785 -0.0023,-0.03587 -0.0037,-0.05381 -0.130414,-1.888484 1.007738,-3.1824592 2.505798,-3.2829827 z"
     inkscape:connector-curvature="0"
     id="path3869"
     style="opacity:0.15;fill:#000000;fill-opacity:1;stroke:none;display:inline" />
  <path
     sodipodi:nodetypes="sscscss"
     d="m 9.2515079,25.139101 c -1.5013962,-0.0099 -2.726792,-1.120336 -2.7104247,-3.052752 1.55e-4,-0.01798 -1.058e-4,-0.03602 3.318e-4,-0.05393 0.017869,1.523564 1.2124844,2.793085 2.6964323,2.802825 1.4839477,0.0098 2.7376667,-1.085703 2.7434107,-2.767122 2.27e-4,0.01792 -2.72e-4,0.03594 -3.33e-4,0.05393 -0.0087,1.892963 -1.228021,3.026903 -2.7294174,3.017049 z"
     inkscape:connector-curvature="0"
     id="path3879"
     style="opacity:0.75;fill:#ffffff;fill-opacity:1;stroke:none;display:inline"
     inkscape:transform-center-x="0.18215477"
     inkscape:transform-center-y="1.3108968" />
  <path
     style="opacity:0.15;fill:#000000;fill-opacity:1;stroke:none;display:inline"
     id="path3881"
     inkscape:connector-curvature="0"
     d="m 9.279546,19.279018 c 1.501397,0.0098 2.715891,1.193217 2.699525,3.125631 -1.55e-4,0.01798 1.06e-4,0.03602 -3.31e-4,0.05393 -0.01787,-1.523562 -1.212689,-2.761819 -2.6966388,-2.771559 -1.4839477,-0.0098 -2.7374615,1.054439 -2.7432059,2.735858 -2.253e-4,-0.01791 2.711e-4,-0.03594 3.318e-4,-0.05393 0.00873,-1.892961 1.2389212,-3.099782 2.7403179,-3.089929 z"
     sodipodi:nodetypes="sscscss"
     inkscape:transform-center-x="0.18423798"
     inkscape:transform-center-y="-1.4061262" />
  <path
     inkscape:transform-center-y="1.3843595"
     inkscape:transform-center-x="-0.18536286"
     style="opacity:0.75;fill:#ffffff;fill-opacity:1;stroke:none;display:inline"
     id="path3891"
     inkscape:connector-curvature="0"
     d="M 7.2658469,16.715404 C 5.7649488,16.675487 4.5620394,15.54068 4.6171056,13.608982 c 5.308e-4,-0.01798 6.304e-4,-0.03602 0.00143,-0.05392 -0.012645,1.523617 1.1563015,2.816807 2.6397578,2.856266 1.4834547,0.03946 2.7588626,-1.030656 2.7982786,-2.711623 -1.32e-4,0.01791 -9.95e-4,0.03592 -0.0014,0.05392 -0.04665,1.892408 -1.288397,3.001702 -2.7892953,2.961779 z"
     sodipodi:nodetypes="sscscss" />
  <path
     inkscape:transform-center-y="-1.2783355"
     inkscape:transform-center-x="-0.17825997"
     sodipodi:nodetypes="sscscss"
     d="m 7.4112441,10.857057 c 1.5008986,0.03992 2.6914499,1.247371 2.6363839,3.17907 -5.31e-4,0.01798 -6.3e-4,0.03602 -0.0014,0.05392 0.01265,-1.523619 -1.157134,-2.785558 -2.64059,-2.825015 -1.483455,-0.03946 -2.7580303,0.999402 -2.7974484,2.680369 1.338e-4,-0.01792 9.953e-4,-0.03592 0.00143,-0.05392 0.046652,-1.892406 1.3007552,-3.074348 2.8016531,-3.034427 z"
     inkscape:connector-curvature="0"
     id="path3893"
     style="opacity:0.15;fill:#000000;fill-opacity:1;stroke:none;display:inline" />
  <path
     inkscape:connector-curvature="0"
     id="path4021"
     d="M 25.559837,19.375241 C 20.943325,18.463676 12.732572,16.97967 12.732572,16.97967 l 0.577198,0.271705 11.631124,2.455147 z"
     style="opacity:0.75;fill:#ffffff;fill-opacity:1;stroke:none;display:inline"
     sodipodi:nodetypes="ccccc" />
  <path
     inkscape:connector-curvature="0"
     id="path4023"
     d="M 12.732978,16.998382 13.18315,17.05794 20.372067,6.4504795 19.892575,6.6437071 z"
     style="opacity:0.15;fill:#000000;fill-opacity:1;stroke:none;display:inline"
     sodipodi:nodetypes="ccccc" />
  <path
     sodipodi:nodetypes="ccccc"
     style="opacity:0.15;fill:#000000;fill-opacity:1;stroke:none;display:inline"
     d="m 17.616917,15.427399 -0.536605,0.241627 12.450679,2.340457 0.07314,-0.349773 z"
     id="path4025"
     inkscape:connector-curvature="0" />
  <path
     sodipodi:nodetypes="ccccc"
     style="opacity:0.75;fill:#ffffff;fill-opacity:1;stroke:none;display:inline"
     d="m 24.020288,5.3820561 -6.978623,10.2909549 0.572778,-0.25839 6.676265,-9.8824969 z"
     id="path4027"
     inkscape:connector-curvature="0" />
</svg>
